<svg width="114" height="114" viewBox="0 0 114 114" fill="none" xmlns="http://www.w3.org/2000/svg">
<path d="M57 1C48.3607 1.81349 40.3373 5.80737 34.5 12.2C27.5614 18.6812 21.996 26.4795 18.1318 35.1354C14.2676 43.7912 12.1827 53.1295 12 62.6C12 79.4 23.25 113 57 113C90.75 113 102 79.4 102 62.6C101.817 53.1295 99.7324 43.7912 95.8682 35.1354C92.004 26.4795 86.4386 18.6812 79.5 12.2C73.6627 5.80737 65.6393 1.81349 57 1ZM57 96.2C52.1505 96.258 47.3801 94.9741 43.2206 92.4912C39.061 90.0084 35.6759 86.4243 33.4425 82.1384C32.713 80.8426 32.5304 79.3113 32.935 77.8814C33.3395 76.4516 34.2981 75.2403 35.5997 74.514C36.2442 74.1544 36.9535 73.9247 37.6872 73.838C38.4209 73.7513 39.1645 73.8093 39.8757 74.0087C41.3119 74.4115 42.5286 75.3657 43.2581 76.6616C44.5138 79.2096 46.4739 81.3478 48.9082 82.8249C51.3425 84.302 54.1498 85.0566 57 85C58.4918 85 59.9226 85.59 60.9775 86.6402C62.0324 87.6904 62.625 89.1148 62.625 90.6C62.625 92.0852 62.0324 93.5096 60.9775 94.5598C59.9226 95.61 58.4918 96.2 57 96.2Z" fill="black"/>
</svg>
