<svg width="114" height="114" viewBox="0 0 114 114" fill="none" xmlns="http://www.w3.org/2000/svg">
<path d="M109.422 53.3349L101.204 39.6364C98.4019 34.9639 93.2234 32.0625 87.6884 32.0625H76.1868C70.6518 32.0625 65.4733 34.9639 62.6727 39.6364L54.4536 53.3349C53.0985 55.591 53.0985 58.409 54.4536 60.6651L62.6727 74.3636C65.4751 79.0361 70.6518 81.9375 76.1868 81.9375H87.6884C93.2234 81.9375 98.4019 79.0361 101.202 74.3636L109.422 60.6651C110.777 58.409 110.777 55.591 109.422 53.3349ZM81.9376 46.3125C76.0441 46.3125 71.2501 51.1065 71.2501 57C71.2501 58.9674 69.655 60.5625 67.6876 60.5625C65.7202 60.5625 64.1251 58.9674 64.1251 57C64.1251 47.1789 72.1164 39.1875 81.9376 39.1875C83.905 39.1875 85.5001 40.7826 85.5001 42.75C85.5001 44.7174 83.905 46.3125 81.9376 46.3125Z" fill="black"/>
<path d="M12.7977 42.3011C15.5998 46.9736 20.7766 49.875 26.3118 49.875H37.8133C43.3483 49.875 48.5269 46.9736 51.3275 42.3011L59.5466 28.6026C60.9017 26.3465 60.9017 23.5285 59.5466 21.2724L51.3292 7.57365C48.5269 2.90143 43.3483 0 37.8133 0H26.3118C20.7766 0 15.5983 2.90143 12.7977 7.57387L4.57833 21.2724C3.22324 23.5285 3.22324 26.3465 4.57833 28.6026L12.7977 42.3011ZM32.0626 7.125C34.03 7.125 35.6251 8.72011 35.6251 10.6875C35.6251 12.6549 34.03 14.25 32.0626 14.25C26.1691 14.25 21.3751 19.044 21.3751 24.9375C21.3751 26.9049 19.78 28.5 17.8126 28.5C15.8452 28.5 14.2501 26.9049 14.2501 24.9375C14.2501 15.1164 22.2414 7.125 32.0626 7.125Z" fill="black"/>
<path d="M51.3293 71.6989C48.5269 67.0264 43.3484 64.125 37.8134 64.125H26.3118C20.7768 64.125 15.5983 67.0264 12.7977 71.6989L4.57857 85.3974C3.22348 87.6535 3.22348 90.4715 4.57857 92.7276L12.7977 106.426C15.5998 111.099 20.7766 114 26.3118 114H37.8134C43.3484 114 48.5269 111.099 51.3275 106.426L59.5466 92.7276C60.9017 90.4715 60.9017 87.6535 59.5466 85.3974L51.3293 71.6989ZM32.0626 78.375C26.1691 78.375 21.3751 83.169 21.3751 89.0625C21.3751 91.0299 19.78 92.625 17.8126 92.625C15.8452 92.625 14.2501 91.0299 14.2501 89.0625C14.2501 79.2414 22.2414 71.25 32.0626 71.25C34.03 71.25 35.6251 72.8451 35.6251 74.8125C35.6251 76.7799 34.03 78.375 32.0626 78.375Z" fill="black"/>
</svg>
