<svg width="114" height="114" viewBox="0 0 114 114" fill="none" xmlns="http://www.w3.org/2000/svg">
<path d="M46.4017 5.59313C39.6107 5.65992 32.6415 9.96609 29.3907 16.1604C38.1857 22.9559 51.3892 17.287 55.7755 8.81051C52.9923 6.54387 49.7192 5.56195 46.4017 5.59313ZM66.2403 13.159C59.4271 21.7312 64.6595 34.7344 73.922 39.477C80.6239 30.5707 74.7681 17.434 66.2403 13.159ZM92.9146 15.5303C88.3724 25.4496 96.5216 36.8273 106.675 39.2098C111.039 28.9676 102.222 17.6366 92.9146 15.5303ZM19.2131 15.8509C8.48776 17.9728 4.05245 31.2387 8.05804 40.8574C18.9058 38.4082 22.956 24.6258 19.2131 15.8509ZM41.5478 38.1633C32.1294 38.1633 24.5146 47.6707 24.4032 57.1113C35.3579 59.1152 44.5091 48.0047 44.5091 38.475C43.5071 38.2523 42.5052 38.1633 41.5478 38.1633ZM67.0642 43.6852C60.2509 52.2574 65.4833 65.2605 74.7458 70.0031C81.4478 61.0969 75.5919 47.9602 67.0642 43.6852ZM101.977 55.4191C90.8661 55.8867 84.3868 68.734 86.5021 78.041C97.4345 77.8629 104.181 65.5945 101.977 55.4191ZM30.9939 70.0699C22.2212 76.5938 23.9134 90.4875 31.6618 97.4566C40.4122 90.5766 38.1411 76.3711 30.9939 70.0699ZM59.0708 72.3633C53.5489 72.3188 47.8935 74.5676 44.42 78.2637C50.6989 87.2367 64.6372 85.9453 71.829 78.4195C68.7341 74.2113 63.947 72.3856 59.0708 72.3633ZM11.9033 81.4254C5.28819 90.109 10.7544 103.001 20.1193 107.565C26.6298 98.5254 20.5201 85.5223 11.9033 81.4254ZM92.6696 86.8137C82.5611 86.7469 75.1243 97.4789 75.9704 107.365C87.081 108.322 95.1189 96.3879 94.1837 86.9027C93.6716 86.8359 93.1818 86.8137 92.6696 86.8137Z" fill="black"/>
</svg>
