<svg width="114" height="114" viewBox="0 0 114 114" fill="none" xmlns="http://www.w3.org/2000/svg">
<g clip-path="url(#clip0_37_233)">
<path fill-rule="evenodd" clip-rule="evenodd" d="M30.5839 66.5099C30.5953 63.571 30.7229 61.1063 31.5825 58.2859C34.1817 49.7268 36.4115 46.113 35.1484 36.4891C31.5118 39.2662 28.2013 42.5608 24.9682 45.7915L21.7283 43.9196C23.3015 39.0815 27.6723 33.5844 32.1092 30.6774C30.3923 24.0586 26.9769 20.1871 22.0954 15.561C19.2614 17.8843 16.8172 19.7471 15.0662 23.142C19.0858 26.1881 22.8478 31.1448 24.2819 35.5589L21.0398 37.4308C17.8227 34.2137 14.5372 30.9442 10.9166 28.1717C9.86321 30.5999 9.45737 33.0942 9.54401 35.6341C15.6818 39.3596 21.2359 44.102 23.5478 51.2042L20.3079 53.0784C16.742 49.5125 13.2422 46.0469 9.15869 43.0624C8.22617 48.2767 10 53.4523 11.7625 58.2928C12.7588 61.0356 13.2308 63.5892 13.2376 66.5099L13.4041 110.366C19.8838 115.311 23.8943 115.092 30.4243 110.427L30.5839 66.5099ZM82.8255 66.5099L82.9919 110.366C89.4717 115.311 93.4822 115.092 100.012 110.427L100.172 66.5099C100.183 63.571 100.313 61.1063 101.17 58.2859C103.77 49.7268 105.999 46.113 104.736 36.4891C101.1 39.2662 97.7891 42.5608 94.5561 45.7915L91.3139 43.9196C92.8871 39.0815 97.2579 33.5844 101.695 30.6774C99.9779 24.0586 96.5625 20.1871 91.681 15.561C88.847 17.8843 86.4028 19.7471 84.6518 23.142C88.6691 26.1881 92.4334 31.1448 93.8675 35.5589L90.6254 37.4308C87.4083 34.2137 84.1228 30.9442 80.5022 28.1717C79.4488 30.5999 79.043 33.0942 79.1296 35.6341C85.2674 39.3596 90.8214 44.102 93.1334 51.2042L89.8912 53.0761C86.3253 49.5102 82.8255 46.0446 78.742 43.0601C77.8095 48.2744 79.5811 53.45 81.3458 58.2905C82.3467 61.0356 82.8164 63.5892 82.8255 66.5099ZM66.9955 58.9471C67.0091 54.4054 67.3192 51.1655 68.9699 46.9019C72.1665 38.6688 73.5231 32.2164 72.2759 23.3518C68.2381 26.0239 64.15 30.226 60.7027 33.6756L57.4605 31.8037C59.1682 26.5483 64.1751 20.5223 68.9859 17.8706C67.1801 10.1004 63.2768 5.41044 57.5768 0C54.3437 2.65392 51.5348 4.91112 49.6743 8.77344C53.8513 11.783 57.8276 16.9358 59.3119 21.505L56.0697 23.3768C52.6634 19.9705 49.1841 16.4958 45.299 13.6344C43.7942 16.7899 43.2994 19.9318 43.4818 23.4019C49.6994 26.8333 55.2329 32.1047 57.9735 39.3733L54.7313 41.2452C51.0286 37.5425 47.4194 33.972 43.1102 30.9556C41.9497 36.3592 43.4271 41.781 45.2192 46.9064C46.7126 51.1723 47.7659 54.2412 47.7773 58.9426L47.9689 110.031C55.0574 115.432 59.663 115.195 66.8085 110.092L66.9955 58.9471Z" fill="black"/>
</g>
<defs>
<clipPath id="clip0_37_233">
<rect width="114" height="114" fill="white"/>
</clipPath>
</defs>
</svg>
