<svg width="114" height="114" viewBox="0 0 114 114" fill="none" xmlns="http://www.w3.org/2000/svg">
<path d="M105.422 59.3328L113.921 37.3769C114.109 36.8864 113.952 36.3331 113.538 36.0167C113.121 35.6965 112.547 35.6931 112.126 36.0026L90.0616 52.2775C85.3128 51.7173 80.1777 40.3723 57.5712 34.7433L64.1778 33.8006C65.2319 33.6509 66.1575 33.0351 66.707 32.1202C67.2532 31.2086 67.3576 30.0989 66.9958 29.1003L63.6733 19.9645C63.2663 18.8476 62.3269 18.0093 61.172 17.7344C60.0171 17.4594 58.8027 17.7831 57.9366 18.5971L42.8133 32.8333C18.3456 33.3688 0.000732422 53.0634 0.000732422 59.3328C0.832131 64.5895 10.8866 76.6721 26.1072 82.5447C27.6972 80.325 28.9808 78.182 30.0072 76.1398C33.0026 70.1663 33.8445 65.0348 33.8445 61.5037C33.8445 60.0807 33.7053 58.9189 33.5279 58.1046C33.2426 56.7582 34.0985 55.4363 35.4447 55.1508C36.7911 54.8621 38.113 55.7215 38.4018 57.0644C38.6592 58.2785 38.8229 59.7605 38.8229 61.5037C38.8229 65.8107 37.8035 71.7042 34.4568 78.3735C33.5174 80.2487 32.3832 82.1864 31.0439 84.1661C36.2763 85.5924 41.9993 86.2361 48.0736 85.6585L52.5823 94.443C53.0381 95.3336 53.8488 95.9878 54.8158 96.2452C55.783 96.4992 56.8128 96.3356 57.6547 95.7858L61.0954 93.535C62.0452 92.9158 62.633 91.8824 62.6923 90.7554C62.7444 89.6281 62.2608 88.5393 61.3806 87.8294L56.7709 84.1173C80.0595 78.5647 85.2605 66.9554 90.0616 66.3883L112.126 82.6631C112.547 82.9729 113.121 82.9693 113.538 82.6527C113.952 82.3361 114.109 81.7794 113.921 81.2925L105.422 59.3328ZM17.0166 60.9956C14.9534 60.9956 13.2802 59.3187 13.2802 57.2592C13.2802 55.196 14.9537 53.5228 17.0166 53.5228C19.0795 53.5228 20.753 55.1963 20.753 57.2592C20.753 59.3187 19.0795 60.9956 17.0166 60.9956Z" fill="black"/>
</svg>
