<svg width="114" height="114" viewBox="0 0 114 114" fill="none" xmlns="http://www.w3.org/2000/svg">
<g clip-path="url(#clip0_37_263)">
<path d="M104.025 97.85L71.25 40.375V19H76C77.2597 19 78.4679 18.4996 79.3587 17.6088C80.2495 16.718 80.75 15.5098 80.75 14.25C80.7842 13.6172 80.6849 12.9843 80.4583 12.3925C80.2317 11.8007 79.883 11.2632 79.4349 10.8151C78.9868 10.367 78.4493 10.0183 77.8575 9.7917C77.2657 9.56512 76.6327 9.46573 76 9.50002H37.7625C36.5027 9.50002 35.2945 10.0005 34.4037 10.8913C33.5129 11.7821 33.0125 12.9902 33.0125 14.25C33.0125 15.5098 33.5129 16.718 34.4037 17.6088C35.2945 18.4996 36.5027 19 37.7625 19H42.75V40.375L9.97496 97.85C9.66199 98.5668 9.53088 99.3498 9.59326 100.129C9.65563 100.909 9.90957 101.661 10.3325 102.319C10.7555 102.977 11.3344 103.52 12.0178 103.901C12.7012 104.281 13.4679 104.487 14.25 104.5H99.7499C100.532 104.487 101.299 104.281 101.982 103.901C102.666 103.52 103.244 102.977 103.667 102.319C104.09 101.661 104.344 100.909 104.407 100.129C104.469 99.3498 104.338 98.5668 104.025 97.85ZM52.25 42.9875V19H61.75V42.9875L75.2875 66.5H38.7125L52.25 42.9875Z" fill="black"/>
</g>
<defs>
<clipPath id="clip0_37_263">
<rect width="114" height="114" fill="white"/>
</clipPath>
</defs>
</svg>
