<svg width="114" height="114" viewBox="0 0 114 114" fill="none" xmlns="http://www.w3.org/2000/svg">
<g clip-path="url(#clip0_37_196)">
<path d="M79.3144 0C79.3144 0 61.9716 17.8631 61.9716 28.9047C58.4422 24.7393 54.5751 20.8722 50.4097 17.3428C47.3334 26.7117 45.3925 36.416 44.6288 46.2475C41.0994 42.0821 37.2323 38.215 33.0669 34.6856C29.9906 44.0545 28.0497 53.7588 27.286 63.5903C23.7566 59.4249 19.8895 55.5578 15.7241 52.0284C12.6478 61.3973 10.7069 71.1016 9.9432 80.9331C9.9432 86.714 11.7353 89.8357 14.4523 91.2231L0 105.675L8.32454 114L22.7769 99.5477C24.1643 102.265 27.1704 104.057 33.0669 104.057C42.8984 103.293 52.6027 101.352 61.9716 98.2759C58.4422 94.1105 54.5751 90.2434 50.4097 86.714C60.2412 85.9503 69.9455 84.0094 79.3144 80.9331C75.785 76.7677 71.9179 72.9006 67.7525 69.3712C77.584 68.6075 87.2883 66.6666 96.6572 63.5903C93.1278 59.4249 89.2607 55.5578 85.0953 52.0284C96.1369 52.0284 114 34.6856 114 34.6856C109.218 32.8955 104.334 31.3898 99.3742 30.1765C107.814 22.3144 108.219 5.78093 108.219 5.78093C108.219 5.78093 91.9746 5.78093 83.8235 14.2789C82.6096 9.43274 81.1038 4.66441 79.3144 0ZM67.7525 39.6572C69.6334 40.1793 71.5825 40.4132 73.5335 40.3509C73.4712 42.3019 73.7051 44.251 74.2272 46.1318H73.5335C71.0546 46.1481 68.6017 46.6386 66.3073 47.5771C67.2457 45.2826 67.7363 42.8298 67.7525 40.3509V39.6572ZM50.4097 57C52.2906 57.5221 54.2397 57.756 56.1907 57.6937C56.1284 59.6447 56.3623 61.5938 56.8844 63.4746H56.1907C53.7118 63.4909 51.2589 63.9814 48.9645 64.9199C49.9029 62.6254 50.3935 60.1726 50.4097 57.6937V57ZM33.0669 74.3428C34.9478 74.8649 36.8969 75.0988 38.8479 75.0365C38.7856 76.9875 39.0195 78.9366 39.5416 80.8174H38.8479C36.369 80.8337 33.9161 81.3242 31.6217 82.2627C32.5601 79.9682 33.0507 77.5154 33.0669 75.0365V74.3428Z" fill="black"/>
</g>
<defs>
<clipPath id="clip0_37_196">
<rect width="114" height="114" fill="white"/>
</clipPath>
</defs>
</svg>
