<svg width="114" height="114" viewBox="0 0 114 114" fill="none" xmlns="http://www.w3.org/2000/svg">
<path d="M108.041 62.769L98.1829 57.1233L83.6335 58.9625C83.3734 57.8746 83.0657 56.8232 82.7043 55.8233L93.0877 51.8045L99.1771 41.207L98.5194 36.0238C102.722 32.5958 105.572 25.8335 102.252 18.5702C98.2384 9.79263 90.0135 8.04523 90.0135 8.04523L90.4744 23.7993L77.9246 17.5072C76.7737 33.6589 87.006 38.7636 93.2943 38.2704L93.5239 40.0734L89.3119 47.4015L80.2916 50.8945C77.2822 46.2793 72.0954 41.2529 71.6995 37.9166C72.8449 36.9511 73.5714 35.5074 73.5714 33.8921C73.5714 30.9862 71.2162 28.6305 68.31 28.6305C65.4039 28.6305 63.0465 30.9862 63.0465 33.8921C63.0465 35.3338 63.6278 36.6396 64.5645 37.5897C63.0044 39.9278 63.1364 41.5358 56.9991 41.5358C50.8638 41.5358 50.9941 39.9278 49.4339 37.5897C50.3726 36.6396 50.9538 35.3338 50.9538 33.8921C50.9538 30.9862 48.5963 28.6305 45.6884 28.6305C42.7823 28.6305 40.4288 30.9862 40.4288 33.8921C40.4288 35.5076 41.1553 36.9511 42.3005 37.9166C41.9048 41.2529 36.7178 46.2791 33.7086 50.8945L24.6863 47.4015L20.4781 40.0734L20.7057 38.2704C26.994 38.7636 37.2263 33.6589 36.0737 17.5072L23.5239 23.7993L23.9865 8.04523C23.9865 8.04523 15.7598 9.79286 11.7487 18.5702C8.42576 25.8332 11.2782 32.5958 15.4786 36.0238L14.8209 41.207L20.9101 51.8045L31.2937 55.8233C30.9361 56.8232 30.6261 57.8746 30.3643 58.9625L15.8168 57.1233L5.95739 62.769L0 73.0168L3.41844 75.2785L9.80222 66.8681L16.9468 62.7766L29.5483 64.3712C29.483 65.3195 29.4583 66.2678 29.4812 67.2181L20.4169 70.2389L11.6262 80.7886L10.1981 94.2101L14.2493 94.8487L16.7921 83.1307L23.6214 74.9345L30.1848 72.7453C30.6782 74.7989 31.4393 76.7374 32.5116 78.4543L26.3609 82.7235L23.7187 94.2005L27.2596 105.955L31.2171 104.884L29.3091 93.9349L31.368 85.905L35.949 82.7255C43.6233 90.2677 54.1482 90.2163 56.9987 90.2163C59.8513 90.2163 70.3743 90.2677 78.0506 82.7255L82.6315 85.905L84.6886 93.9349L82.7827 104.884L86.7402 105.955L90.2811 94.2005L87.6368 82.7235L81.4844 78.4543C82.5589 76.7374 83.32 74.7987 83.8129 72.7453L90.3766 74.9345L97.2077 83.1307L99.7487 94.8487L103.8 94.2101L102.372 80.7886L93.5809 70.2389L84.5165 67.2181C84.5415 66.2681 84.5145 65.3198 84.4515 64.3712L97.0527 62.7766L104.196 66.8681L110.579 75.2785L114 73.0168L108.041 62.769Z" fill="black"/>
</svg>
