<svg width="114" height="114" viewBox="0 0 114 114" fill="none" xmlns="http://www.w3.org/2000/svg">
<g clip-path="url(#clip0_37_212)">
<path d="M113.144 26.2857C112.082 22.4823 109.992 18.6842 106.409 14.9759C102.838 11.2882 99.0386 9.18546 95.1488 8.20889C91.2608 7.24122 87.2363 7.41044 83.2601 8.51816C78.2092 9.92134 73.2626 12.8606 69.0785 16.7814C64.8861 20.7006 61.4699 25.5892 59.3971 30.7646C58.0666 34.0893 56.5095 36.7712 54.7211 38.9261C52.9361 41.081 50.9093 42.6828 48.7611 43.8232C47.3321 44.5851 45.8545 45.1435 44.3634 45.5599C42.4281 46.0956 40.4658 46.3962 38.5044 46.5984C36.5397 46.7988 34.5705 46.8974 32.6058 47.0081C28.6695 47.2274 24.7496 47.5073 20.8847 48.584C18.926 49.13 16.9811 49.875 15.026 50.929C9.77442 53.7664 6.10014 57.238 3.68321 61.1105C1.27362 64.9811 0.0908718 69.2873 0.00514915 73.9254C-0.0536321 77.0186 0.391458 80.2535 1.30969 83.5558C1.86277 85.543 2.58863 87.5542 3.48349 89.5744C5.13203 93.3052 8.25122 97.1638 12.3543 100.207C16.4577 103.255 21.512 105.495 27.0089 106.191C30.6738 106.658 34.5414 106.452 38.5209 105.344C39.3055 105.125 40.0969 104.869 40.8908 104.579C45.2333 102.984 49.0488 100.91 52.5402 98.5167C56.0324 96.12 59.2008 93.4001 62.2186 90.5162C68.2573 84.755 73.6616 78.3336 79.9196 72.7883C84.0911 69.0974 88.6651 65.7951 94.0634 63.4604C95.7017 62.7537 97.6335 61.5613 99.5913 59.9716C101.556 58.3836 103.557 56.4086 105.408 54.1449C109.116 49.6261 112.195 43.9875 113.412 38.1314C114.23 34.2243 114.243 30.2343 113.144 26.2857ZM13.0308 65.3233C13.3973 65.2231 13.8259 65.1764 14.3191 65.1245C14.9015 65.0588 15.565 64.988 16.225 64.805C16.8861 64.622 17.4875 64.3401 18.0238 64.0914C18.4714 63.8823 18.861 63.7024 19.2266 63.6006C20.1916 63.3294 20.8716 63.7164 21.1397 64.6807C21.679 66.6161 20.0578 68.764 17.5237 69.4707C14.9897 70.1723 12.4919 69.1753 11.9527 67.24C11.6839 66.2754 12.0667 65.593 13.0308 65.3233ZM14.8229 84.3108C14.4308 84.6114 13.9528 84.8501 13.4433 84.9899C12.8126 85.168 12.1515 85.2023 11.4751 85.1023C10.1772 84.9086 8.99957 84.1725 8.40842 83.179C7.80992 82.2078 7.83575 81.064 8.49325 80.1222C8.7257 79.7853 9.01961 79.4328 9.43865 79.3153C9.85324 79.1995 10.1963 79.3533 10.478 79.5241L10.6646 79.6417C11.044 79.8871 11.5632 80.217 12.2078 80.3157C12.7703 80.4005 13.3423 80.3088 13.8426 80.2242C14.0421 80.1912 14.228 80.1618 14.3948 80.1444C14.7713 80.1064 15.2518 80.1064 15.6345 80.4366C15.9318 80.694 16.0892 81.0896 16.1114 81.6427C16.15 82.6794 15.6799 83.6506 14.8229 84.3108ZM22.536 97.5299C22.2156 97.7356 21.8457 97.8964 21.4474 98.007C20.6888 98.2195 19.855 98.2384 19.0411 98.0589C17.7952 97.7944 16.7231 97.0877 16.095 96.1338C15.4773 95.2042 15.3562 94.1155 15.765 93.1511C15.9939 92.6016 16.3112 92.2819 16.7257 92.1645C17.308 92.0038 17.8637 92.3115 18.4495 92.6379C18.9169 92.8953 19.4464 93.191 20.0738 93.3272C20.7088 93.4689 21.3301 93.4154 21.8787 93.3704C22.0653 93.3533 22.2392 93.3411 22.3952 93.3342C22.7851 93.3203 23.275 93.3515 23.6379 93.7075C23.922 93.9823 24.0569 94.3813 24.05 94.9257C24.0367 95.9835 23.4871 96.9305 22.536 97.5299ZM28.0612 82.6553C27.9238 82.7088 27.7864 82.7538 27.649 82.7898C26.4817 83.1131 25.2626 82.9889 24.3112 82.4409C23.5397 81.9985 22.9998 81.3125 22.7871 80.5071C22.6473 80.0077 22.6696 79.5983 22.8564 79.2647C23.0327 78.9555 23.3273 78.7462 23.7652 78.6253C24.0271 78.5527 24.3499 78.5059 24.7129 78.4645C25.1154 78.4144 25.5701 78.359 26.0212 78.2314C26.1388 78.2002 26.2561 78.1639 26.3746 78.1172C26.9397 77.9083 27.4268 77.5814 27.8554 77.2964C28.27 77.0181 28.6305 76.7761 29.0063 76.6726C29.4116 76.5619 30.1633 76.5292 30.6607 77.5952C31.0425 78.3832 31.0626 79.3077 30.7066 80.1941C30.2617 81.2989 29.2976 82.1991 28.0612 82.6553ZM39.0081 92.0071C38.7135 93.2099 37.8338 94.2882 36.5949 94.9586C36.2451 95.1488 35.8753 95.2991 35.4959 95.4046C34.7148 95.6188 33.9268 95.6464 33.2141 95.4719C32.1324 95.2145 31.2917 94.518 30.9159 93.559C30.7128 93.0474 30.7032 92.6223 30.8829 92.256C31.1412 91.7324 31.6969 91.5422 32.197 91.4024L33.0507 91.1759C33.3971 91.0775 33.8516 90.941 34.2967 90.699C34.8555 90.3949 35.3195 89.9854 35.7283 89.6225C36.1863 89.2181 36.582 88.8672 37.0364 88.7412C37.4546 88.6236 38.0696 88.6584 38.6088 89.4826C39.0893 90.1894 39.2338 91.0916 39.0081 92.0071ZM42.2319 74.1708C41.6659 74.6909 40.9955 75.071 40.2895 75.2663C39.9136 75.3718 39.5404 75.4235 39.1715 75.4201C38.0889 75.4114 37.1248 74.9396 36.5199 74.1258C36.1828 73.6678 36.0619 73.253 36.1501 72.8504C36.2908 72.2094 36.8991 71.8828 37.5428 71.5354C37.9972 71.2936 38.5078 71.0169 38.952 70.6074C39.3968 70.1995 39.7175 69.7019 39.9982 69.263C40.126 69.068 40.24 68.8916 40.3549 68.7375C40.5346 68.4924 40.8283 68.1484 41.2734 68.0239C41.5973 67.9324 42.1106 67.9358 42.6826 68.4786C43.4343 69.1784 43.8074 70.153 43.7288 71.2124C43.6505 72.2889 43.1078 73.3672 42.2319 74.1708ZM50.2326 84.9641C49.6408 85.4737 48.9479 85.8505 48.2316 86.0491C46.7369 86.4657 45.2888 86.0889 44.4516 85.0694C44.0991 84.6374 43.9582 84.2262 44.0334 83.8096C44.1579 83.1167 44.8178 82.7348 45.586 82.2888C46.0569 82.0159 46.5933 81.7082 47.0738 81.2918C47.5543 80.8803 47.9439 80.4003 48.2835 79.975C48.7871 79.3529 49.1864 78.857 49.7419 78.7065C50.2656 78.5596 50.7623 78.7515 51.2228 79.2716C51.7794 79.9022 52.0506 80.7559 51.9885 81.6719C51.9025 82.8782 51.2624 84.0792 50.2326 84.9641ZM53.3153 63.3397C52.7631 63.8097 52.1152 64.1571 51.4454 64.3436C50.0068 64.7462 48.6141 64.406 47.7206 63.4381C47.3319 63.0131 47.172 62.6034 47.2341 62.1819C47.3354 61.4698 48.0118 61.0637 48.7938 60.5954C49.2318 60.3312 49.7321 60.0303 50.1761 59.6554C50.6176 59.2753 50.9934 58.8311 51.3245 58.4388C51.8144 57.8532 52.2392 57.3502 52.7854 57.1999C53.1612 57.0946 53.7272 57.1171 54.2932 57.8272C55.5356 59.3929 55.1039 61.8154 53.3153 63.3397ZM62.5549 74.1777C61.9606 74.6874 61.2641 75.0641 60.5443 75.2663C59.0634 75.6793 57.6671 75.3355 56.8041 74.3503C56.4378 73.9321 56.284 73.5104 56.3497 73.0994C56.461 72.384 57.1436 71.9743 57.9385 71.5009C58.4025 71.2226 58.932 70.9047 59.4063 70.5003C59.8774 70.0942 60.2695 69.6224 60.616 69.2078C61.1432 68.577 61.5578 68.0809 62.1202 67.924C62.4927 67.8184 63.0516 67.8393 63.6176 68.5251C64.9025 70.0822 64.435 72.5654 62.5549 74.1777ZM65.5505 54.1881C65.1125 54.4782 64.638 54.6944 64.144 54.8324C62.4763 55.2956 60.8451 54.8066 59.9785 53.5795C59.6519 53.1062 59.5472 52.6809 59.6614 52.2717C59.8552 51.5821 60.5705 51.2677 61.3946 50.9081C61.8655 50.699 62.3986 50.4673 62.8884 50.1442C63.3758 49.8229 63.8044 49.4272 64.1767 49.0745C64.6839 48.603 65.1221 48.1986 65.6128 48.0603C66.0439 47.9392 66.6651 47.9791 67.1948 48.8294C68.2375 50.5419 67.5152 52.8935 65.5505 54.1881ZM75.2369 64.3038C74.7435 64.6338 74.2114 64.8827 73.6583 65.033C72.0046 65.4979 70.3786 65.0468 69.5222 63.8925C69.1922 63.4414 69.0782 63.0059 69.1793 62.5965C69.3624 61.8811 70.114 61.5322 70.9833 61.1191C71.4707 60.8876 72.0202 60.632 72.5334 60.2862C73.0382 59.9491 73.4822 59.5378 73.8778 59.1767C74.4309 58.6739 74.9109 58.2351 75.4271 58.0881C75.7898 57.9897 76.4829 57.9585 77.0289 58.8674C78.0223 60.5694 77.2344 62.9543 75.2369 64.3038ZM81.1932 43.8372C80.8962 44.9915 80.0527 46.0006 78.8862 46.616C78.5788 46.7767 78.2539 46.9061 77.9152 46.9978C77.6819 47.0635 77.4539 47.1103 77.2344 47.1361C76.7056 47.1915 76.1941 47.1621 75.7052 47.0479C74.6484 46.799 73.819 46.1805 73.3713 45.3112C73.1192 44.8272 73.0674 44.4059 73.2105 44.0238C73.404 43.5055 73.907 43.2637 74.2664 43.1238C74.5273 43.0252 74.835 42.9372 75.1743 42.8422L75.4714 42.7573C75.855 42.6502 76.2525 42.5293 76.6361 42.3272C77.1718 42.0455 77.6107 41.6601 77.9996 41.3232C78.4349 40.9429 78.8101 40.6129 79.2454 40.4918C79.6669 40.3743 80.2821 40.4141 80.8178 41.2609C81.3023 41.9952 81.4352 42.911 81.1932 43.8372ZM80.2585 24.5042C79.8731 24.117 79.6969 23.7162 79.7297 23.2996C79.7885 22.5618 80.4415 22.0902 81.266 21.4921C81.7429 21.1483 82.2853 20.756 82.7676 20.2722C83.2512 19.785 83.6402 19.2424 83.9806 18.7619C84.5094 18.0171 84.9309 17.428 85.5463 17.2585C86.0406 17.1203 86.5209 17.281 86.9805 17.7355C87.6976 18.4526 87.9949 19.4824 87.8152 20.642C87.6458 21.7272 87.0758 22.8107 86.1994 23.6868C85.4669 24.4247 84.594 24.9482 83.6783 25.2058C82.3321 25.5825 81.0861 25.3251 80.2585 24.5042ZM91.8395 54.4593C91.4507 55.4926 90.6075 56.4086 89.5274 56.9735C89.1939 57.1532 88.8381 57.2948 88.4752 57.3952C87.6749 57.6183 86.8665 57.637 86.1373 57.4504C85.059 57.1828 84.2278 56.4761 83.8615 55.5115C83.666 55.0017 83.6593 54.5768 83.8424 54.2139C84.0877 53.7265 84.5854 53.5315 85.0883 53.3896C85.2353 53.3516 85.3994 53.3084 85.5688 53.2687C85.7487 53.2271 85.942 53.177 86.1375 53.1253C86.5919 52.9975 86.9513 52.8575 87.2728 52.6898C87.8448 52.3892 88.3062 51.9813 88.7139 51.6184C89.1596 51.2227 89.5453 50.8823 89.989 50.7581C90.4038 50.6405 91.0121 50.6734 91.5583 51.4872C92.1247 52.3338 92.2285 53.419 91.8395 54.4593ZM91.9537 36.7214C91.349 37.3588 90.6075 37.8099 89.8127 38.0328C88.4562 38.4095 87.0996 38.0586 86.2755 37.115C85.8988 36.6951 85.7381 36.2874 85.7951 35.8777C85.8832 35.2178 86.4483 34.8479 87.1083 34.416C87.5438 34.1359 88.0312 33.8179 88.446 33.3842C88.8677 32.9418 89.1596 32.4354 89.417 31.9881C89.7833 31.354 90.0979 30.8043 90.6853 30.6402C91.3298 30.4605 91.8725 30.8891 92.0488 31.0289C92.8437 31.6579 93.2841 32.6378 93.2585 33.7177C93.2324 34.7825 92.7591 35.8779 91.9537 36.7214ZM95.5082 25.2748C94.9847 25.0624 94.6617 24.7754 94.525 24.3918C94.3143 23.8008 94.6185 23.2444 94.9431 22.6604C95.1851 22.218 95.4563 21.7239 95.5739 21.1396C95.6915 20.5469 95.6222 19.9663 95.5565 19.4548C95.5376 19.2856 95.5185 19.1317 95.5046 18.9917C95.439 18.1483 95.7605 17.6212 96.4534 17.4277C96.619 17.3828 96.8059 17.3567 97.0287 17.3465C98.0843 17.3102 99.0558 17.8045 99.6864 18.6993C100.327 19.5998 100.569 20.868 100.32 22.0931C100.075 23.313 99.3996 24.3586 98.4577 24.9615C98.1623 25.1535 97.8461 25.2984 97.5195 25.3866C96.8457 25.5756 96.1526 25.5376 95.5082 25.2748ZM102.842 45.8866C102.175 46.7177 101.285 47.3189 100.341 47.5801C100.214 47.6199 100.086 47.6458 99.9578 47.6718C98.8623 47.862 97.8169 47.5663 97.0842 46.8544C96.6816 46.469 96.4986 46.0767 96.5226 45.6637C96.5574 44.9915 97.1102 44.5595 97.7477 44.0652C98.1799 43.7283 98.6704 43.3498 99.0714 42.8486C99.4773 42.3459 99.7418 41.7859 99.9787 41.2967C100.324 40.5693 100.621 39.9421 101.269 39.7622C101.665 39.6517 102.087 39.7484 102.553 40.0561C103.407 40.6158 103.924 41.5733 103.97 42.6861C104.015 43.7715 103.604 44.9378 102.842 45.8866ZM110.436 30.1272C110.208 31.3593 109.567 32.4464 108.672 33.1099C108.315 33.3775 107.926 33.5694 107.521 33.6852C106.925 33.8478 106.305 33.8355 105.726 33.6385C105.199 33.4621 104.862 33.1943 104.703 32.8175C104.447 32.2128 104.744 31.5889 105.059 30.929C105.294 30.4416 105.555 29.8887 105.674 29.2579C105.792 28.6202 105.733 28.0017 105.683 27.4557C105.664 27.2398 105.643 27.0409 105.638 26.8648C105.624 26.5382 105.588 25.5498 106.599 25.2681C106.782 25.2163 106.988 25.1904 107.23 25.1938C108.273 25.2094 109.22 25.7553 109.832 26.6974C110.443 27.639 110.666 28.8916 110.436 30.1272Z" fill="black"/>
</g>
<defs>
<clipPath id="clip0_37_212">
<rect width="114" height="114" fill="white"/>
</clipPath>
</defs>
</svg>
