<svg width="161" height="48" viewBox="0 0 161 48" fill="none" xmlns="http://www.w3.org/2000/svg">
<path d="M12.3188 38.3711C13.8813 38.3711 14.7603 37.5898 15.3071 35.7148L16.7915 31.3203H26.9673L28.4517 35.7734C28.979 37.6094 29.8579 38.3711 31.5181 38.3711C33.2368 38.3711 34.4673 37.2188 34.4673 35.5977C34.4673 35.0117 34.3696 34.4844 34.0962 33.7227L26.3618 12.7461C25.522 10.4414 24.1548 9.42578 21.8501 9.42578C19.6235 9.42578 18.2368 10.4805 17.4165 12.7656L9.72119 33.7227C9.46729 34.4453 9.33057 35.1094 9.33057 35.5977C9.33057 37.2969 10.4829 38.3711 12.3188 38.3711ZM18.0806 26.75L21.7329 15.207H21.8696L25.6001 26.75H18.0806ZM68.0171 38.4492C72.0601 38.4492 75.3022 36.9258 76.689 34.3477C76.9429 33.8789 77.0796 33.4102 77.0796 32.9609C77.0796 31.6523 76.0835 30.8711 74.853 30.8711C74.1108 30.8711 73.603 31.0859 72.9976 31.7109C71.4546 33.5273 70.0874 34.2305 67.9976 34.2305C65.1069 34.2305 63.2319 32.1992 63.2319 29.0938V28.8398H75.1851C76.7671 28.8398 77.6655 27.9414 77.6655 26.3594C77.6655 20.6758 73.6812 16.6133 67.7437 16.6133C61.5522 16.6133 57.6265 20.8906 57.6265 27.6289C57.6265 34.4062 61.4741 38.4492 68.0171 38.4492ZM63.2905 25.3438C63.4858 22.668 65.3022 20.832 67.8022 20.832C70.3022 20.832 72.0601 22.6094 72.1772 25.3438H63.2905ZM83.4663 38.4102C85.2046 38.4102 86.3179 37.3359 86.3179 35.4414V26.1445C86.3179 23.6641 87.2358 22.1992 89.8335 22.1602C90.9468 22.1406 91.7671 21.8867 92.314 21.418C92.8608 20.9492 93.1343 20.2656 93.1343 19.3672C93.1343 18.3906 92.8608 17.6875 92.314 17.2578C91.9038 16.9062 91.2983 16.7305 90.5366 16.7305C88.4468 16.7305 86.728 18.2734 86.1812 20.8711H86.064V19.5039C86.064 17.6875 84.9702 16.6328 83.3687 16.6328C81.728 16.6328 80.6147 17.6875 80.6147 19.5039V35.4414C80.6147 37.3359 81.7476 38.4102 83.4663 38.4102ZM103.837 45.8711C110.576 45.9102 114.521 42.6289 114.521 37.1797V19.5234C114.521 17.5898 113.33 16.6328 111.689 16.6328C110.048 16.6328 108.818 17.5898 108.818 19.5234V20.6758H108.701C107.607 18.3125 105.322 16.7305 102.314 16.7305C96.9233 16.7305 93.7202 20.6172 93.7202 27.1797C93.7202 33.5664 97.0015 37.5508 102.216 37.5508C105.244 37.5508 107.685 36.0469 108.662 33.8008H108.779V37.1406C108.779 39.7578 106.943 41.4766 103.818 41.457C101.923 41.4375 100.439 40.6367 98.896 39.1719C98.2515 38.5859 97.6655 38.3516 96.9233 38.3516C95.4976 38.3516 94.5991 39.25 94.5991 40.4414C94.5991 40.9688 94.7163 41.4961 95.0288 42.0234C96.3765 44.2305 99.5601 45.8516 103.837 45.8711ZM104.15 33.3125C101.318 33.3125 99.5601 31.0664 99.5601 27.2383C99.5601 23.4492 101.337 21.0664 104.15 21.0664C107.001 21.0664 108.837 23.4883 108.837 27.2578C108.837 31.0469 107.001 33.3125 104.15 33.3125ZM121.181 14.4648C122.9 14.4648 124.228 13.1562 124.228 11.5156C124.228 9.85547 122.9 8.56641 121.181 8.56641C119.462 8.56641 118.134 9.85547 118.134 11.5156C118.134 13.1562 119.462 14.4648 121.181 14.4648ZM121.181 38.4102C122.939 38.4102 124.033 37.2969 124.033 35.4414V19.6211C124.033 17.7656 122.939 16.6328 121.181 16.6328C119.404 16.6328 118.33 17.7656 118.33 19.6211V35.4414C118.33 37.2969 119.404 38.4102 121.181 38.4102ZM136.376 38.4492C141.904 38.4492 145.634 35.7539 145.634 31.5938C145.634 28.4688 143.798 26.8281 139.345 25.8906L135.888 25.1484C133.798 24.6992 132.978 23.9766 132.978 22.8828C132.978 21.5352 134.326 20.6172 136.259 20.6172C138.31 20.6172 139.443 21.5938 140.439 22.8633C140.947 23.4688 141.767 23.7422 142.509 23.7422C143.974 23.7422 144.697 22.9414 144.697 21.7891C144.697 21.5156 144.638 21.2422 144.56 20.9492C143.876 18.5859 140.693 16.6133 136.357 16.6133C130.927 16.6133 127.47 19.1914 127.47 23.1953C127.47 26.3008 129.541 28.3906 133.642 29.2695L137.158 30.0117C139.208 30.4609 139.931 31.0664 139.931 32.1992C139.931 33.5859 138.583 34.4453 136.513 34.4453C134.345 34.4453 133.056 33.7812 131.943 32.3164C131.162 31.4375 130.38 31.0273 129.462 31.0273C128.134 31.0273 127.158 31.9062 127.158 33.2148C127.158 33.5273 127.236 33.8984 127.373 34.2695C128.369 36.7305 131.572 38.4492 136.376 38.4492ZM149.99 32.6484C149.99 36.3398 151.923 38.2344 155.732 38.2344H155.927C158.33 38.2344 159.97 37.375 159.97 35.6953C159.97 34.3672 159.208 33.7812 157.802 33.625L157.431 33.5859C156.201 33.4883 155.693 32.8633 155.693 31.3789V21.3594H157.705C159.052 21.3594 159.892 20.5195 159.892 19.2109C159.892 17.9023 159.052 17.0625 157.705 17.0625H155.693V14.7383C155.693 12.9023 154.619 11.7695 152.841 11.7695C151.064 11.7695 149.99 12.9023 149.99 14.7383V17.0625H148.896C147.548 17.0625 146.689 17.8828 146.689 19.2109C146.689 20.5391 147.548 21.3594 148.896 21.3594H149.99V32.6484Z" fill="white"/>
<path d="M40.7578 37.9219C41.8711 37.9219 42.5508 37.2773 42.5391 36.2344L42.3047 22.7461C42.293 22.1602 42.4336 21.9141 42.8672 21.7148C44.5547 20.9414 45.3281 20.1094 45.2109 17.7422L44.8594 10.5938C44.8242 9.97266 44.4844 9.60938 43.9102 9.60938C43.3477 9.60938 43.0195 9.99609 43.0312 10.6172L43.125 17.5312C43.125 17.9883 42.8672 18.2578 42.4805 18.2578C42.0703 18.2578 41.8125 18.0117 41.8008 17.5664L41.6836 10.3828C41.6602 9.78516 41.3203 9.41016 40.7578 9.41016C40.1953 9.41016 39.8438 9.78516 39.832 10.3828L39.7031 17.5664C39.7031 18 39.4336 18.2578 39.0234 18.2578C38.6367 18.2578 38.3789 17.9883 38.3789 17.5312L38.4844 10.6172C38.4844 9.99609 38.1562 9.60938 37.5938 9.60938C37.0312 9.60938 36.6797 9.98438 36.6445 10.5938L36.293 17.7422C36.1758 20.1094 36.9492 20.9414 38.6367 21.7148C39.0703 21.9141 39.2109 22.1602 39.2109 22.7461L38.9648 36.2344C38.9414 37.2891 39.6445 37.9219 40.7578 37.9219ZM50.332 27.293L50.1328 36.1992C50.1094 37.2891 50.8125 37.9219 51.9141 37.9219C53.0508 37.9219 53.7188 37.3125 53.7188 36.2695V10.3828C53.7188 9.76172 53.3203 9.41016 52.793 9.41016C52.3242 9.41016 51.9961 9.66797 51.5859 10.2305C49.6406 12.9609 48.1992 18.4922 48.1992 23.1445V23.8711C48.1992 24.7617 48.4805 25.3359 49.2422 25.8516L49.7461 26.1797C50.1914 26.4961 50.3555 26.7773 50.332 27.293Z" fill="#F95643"/>
</svg>
