<svg width="114" height="114" viewBox="0 0 114 114" fill="none" xmlns="http://www.w3.org/2000/svg">
<g clip-path="url(#clip0_37_220)">
<path d="M100.536 90.1607C101.403 90.0203 102.22 90.6109 102.36 91.4782C102.377 91.5795 102.383 91.6798 102.38 91.7789C102.359 92.527 101.809 93.1794 101.043 93.3032C100.855 93.3338 38.8874 109.565 31.5256 113.501C27.7653 115.511 25.1866 110.951 28.1708 108.693C35.7941 102.925 99.7173 90.2926 100.536 90.1607Z" fill="black"/>
<path d="M67.0948 92.1681C66.0092 83.9168 67.0877 74.8828 73.043 65.1108C73.8127 63.8476 76.7369 64.3378 75.3461 67.4139C70.4207 78.3103 70.6777 84.0249 72.1606 90.8336C73.2173 95.6871 67.5782 95.8425 67.0948 92.1681Z" fill="black"/>
<path d="M56.647 94.479C56.6476 91.1909 55.4773 82.3426 47.0088 78.6953C45.8808 78.2093 43.4816 79.5174 45.5981 81.2176C52.7088 86.9296 51.4603 88.8839 51.6004 95.5819C51.6805 99.4087 56.6466 98.4931 56.647 94.479Z" fill="black"/>
<path d="M28.7011 42.0356C19.816 45.5126 14.5085 48.4013 11.6305 51.3403L8.74239 43.9599C5.51033 35.7002 9.72734 30.6239 15.0668 24.1969C15.856 23.2468 16.6722 22.2638 17.4946 21.2365C17.7832 20.876 17.891 20.4017 17.9956 19.9428C18.1506 19.262 18.2845 18.6738 18.9177 18.4259C19.0776 18.3637 19.2307 18.3331 19.3854 18.3331C19.8062 18.3331 20.1808 18.5614 20.5775 18.8038C20.9605 19.038 21.3566 19.2793 21.8126 19.308C22.8995 19.377 23.9451 19.436 24.9505 19.492C35.789 20.1037 41.7593 20.4405 45.3561 29.6318L48.2459 37.0157C48.0345 37.0069 47.8179 37.002 47.5987 37.002C43.4804 37.0027 37.4758 38.6019 28.7011 42.0356Z" fill="black"/>
<path d="M42.6103 76.5632C40.8169 77.2651 38.518 77.6361 35.9625 77.6361C27.264 77.6361 16.8727 73.5112 13.2668 64.2968L12.2717 61.754C11.2135 59.0499 10.2995 56.7145 12.1636 54.0521C14.2836 51.0227 19.7888 47.844 29.4883 44.0485C37.8891 40.7611 43.8102 39.1628 47.5898 39.1625H47.5911C52.5181 39.1625 53.5422 41.7802 54.8389 45.094L55.8349 47.6392C57.9722 53.1014 57.2664 59.4847 53.8467 65.6133C51.0055 70.7059 46.5947 75.0043 42.6103 76.5632ZM34.7459 70.7752C28.9088 70.345 21.6451 66.7445 19.4908 59.8554C19.3149 59.2935 18.841 58.9447 18.2541 58.9447C17.8121 58.9447 17.3861 59.1505 17.1424 59.4821C16.917 59.7886 16.861 60.1746 16.9845 60.5693C19.5283 68.704 27.7141 72.8644 34.698 73.3793C35.4364 73.4366 35.9599 72.935 35.9869 72.2032C36.0107 71.5569 35.584 70.8371 34.7459 70.7752Z" fill="black"/>
<path d="M105.787 24.2933L103.718 31.9316C100.543 29.3259 94.9619 27.0329 85.766 24.5432C78.0577 22.4563 72.6026 21.4844 68.5986 21.4844C67.5906 21.4844 66.6593 21.5489 65.8223 21.6762L67.8915 14.034C70.4666 4.5209 76.3568 3.54051 87.049 1.75984C88.0411 1.5947 89.073 1.42337 90.1443 1.23739C90.5941 1.15954 90.9611 0.876501 91.3165 0.602901C91.7188 0.292496 92.0989 -0.000326469 92.5744 -0.000326469C92.6881 -0.000326469 92.8011 0.0156368 92.9219 0.0478824C93.5769 0.225071 93.7734 0.794418 94.0007 1.45334C94.1544 1.89728 94.3127 2.35588 94.6381 2.68257C95.5661 3.61379 96.4823 4.50104 97.3692 5.35929C103.365 11.1619 108.101 15.7443 105.787 24.2933Z" fill="black"/>
<path d="M85.2021 26.6274C95.2415 29.3452 101.05 31.9046 103.483 34.682C105.621 37.1232 104.967 39.5406 104.209 42.3395L103.496 44.9713C100.372 56.5132 87.3248 60.8146 79.8347 60.8146C78.2895 60.8146 76.8964 60.6498 75.6958 60.3247C71.572 59.2085 66.7283 55.4188 63.3562 50.6706C59.2984 44.9573 57.9067 38.6974 59.4372 33.0443L60.1498 30.4122C61.1739 26.6303 61.9823 23.6429 68.5868 23.6429C72.3475 23.6422 77.7827 24.6187 85.2021 26.6274ZM67.1738 28.1644C66.926 27.7453 66.457 27.4743 65.9788 27.4743C65.5336 27.4743 65.1476 27.7117 64.9196 28.126C61.3644 34.5856 62.552 43.2932 67.8754 49.7941C68.181 50.1674 68.5275 50.2455 68.7643 50.2455C69.2372 50.2455 69.7082 49.9221 69.9359 49.4413C70.1665 48.9541 70.1017 48.415 69.7613 47.9994C66.0729 43.4948 63.691 35.7614 67.1774 29.4263C67.4048 29.0133 67.4035 28.5533 67.1738 28.1644Z" fill="black"/>
</g>
<defs>
<clipPath id="clip0_37_220">
<rect width="114" height="114" fill="white" transform="matrix(1 0 0 -1 0 114)"/>
</clipPath>
</defs>
</svg>
