<svg width="114" height="114" viewBox="0 0 114 114" fill="none" xmlns="http://www.w3.org/2000/svg">
<g clip-path="url(#clip0_37_274)">
<path fill-rule="evenodd" clip-rule="evenodd" d="M34.1999 45.6L22.7999 34.2L56.9999 -3.8147e-06L91.1999 34.2L79.7999 45.6V85.5C79.7999 88.648 82.3519 91.2 85.4999 91.2C88.6479 91.2 91.1999 88.648 91.1999 85.5C91.1999 82.352 93.7519 79.8 96.8999 79.8C100.048 79.8 102.6 82.352 102.6 85.5C102.6 94.9441 94.944 102.6 85.4999 102.6C81.1203 102.6 77.1252 100.954 74.0999 98.2458V108.3C74.0999 111.448 71.5479 114 68.3999 114C65.2519 114 62.6999 111.448 62.6999 108.3V96.9H51.2999V108.3C51.2999 111.448 48.7479 114 45.5999 114C42.4519 114 39.8999 111.448 39.8999 108.3V98.2458C36.8746 100.954 32.8795 102.6 28.4999 102.6C19.0558 102.6 11.3999 94.9441 11.3999 85.5C11.3999 82.352 13.9519 79.8 17.0999 79.8C20.2479 79.8 22.7999 82.352 22.7999 85.5C22.7999 88.648 25.3519 91.2 28.4999 91.2C31.6479 91.2 34.1999 88.648 34.1999 85.5V45.6Z" fill="black"/>
</g>
<defs>
<clipPath id="clip0_37_274">
<rect width="114" height="114" fill="white"/>
</clipPath>
</defs>
</svg>
