<svg width="114" height="114" viewBox="0 0 114 114" fill="none" xmlns="http://www.w3.org/2000/svg">
<path d="M80.2171 30.5168C77.7418 24.7897 76.3306 15.9493 75.9766 11.9927C79.0216 11.6892 81.4041 9.15095 81.4041 6.02686C81.4041 2.69637 78.7077 0 75.3788 0H38.6211C35.2922 0 32.5958 2.69637 32.5958 6.02686C32.5958 9.15095 34.98 11.6892 38.0233 11.9927C37.6724 15.9493 36.2581 24.7899 33.7843 30.5168C29.1863 41.1542 28.0906 51.1815 28.0906 56.1392C28.0906 61.0951 28.0906 103.291 28.0906 103.291C28.0906 109.206 32.885 114 38.8017 114H75.2C81.113 114 85.9093 109.205 85.9093 103.291C85.9093 103.291 85.9093 61.0951 85.9093 56.1392C85.9093 51.1815 84.8156 41.1542 80.2171 30.5168Z" fill="black"/>
</svg>
