<svg width="114" height="114" viewBox="0 0 114 114" fill="none" xmlns="http://www.w3.org/2000/svg">
<path d="M92.627 47.3997C98.698 37.1471 96.8749 23.9251 88.1913 15.2451L75.0338 2.0874C72.2506 -0.695801 67.7419 -0.695801 64.9587 2.0874L51.4532 15.5911C44.8014 22.2429 42.2234 32.0242 44.7248 41.1199C45.0258 42.2105 44.9684 43.6457 44.1612 44.3903C39.021 49.1304 36.0686 55.7892 35.8337 62.8394C25.1061 66.3324 17.8103 76.4023 17.8103 87.7769V106.875C17.8103 110.81 20.8311 114 24.7659 114H43.3421C54.7879 114 64.9346 106.979 68.5893 96.5319C69.4922 93.9523 69.9896 91.2839 70.0713 88.5911C80.7779 85.0999 88.1777 74.9744 88.1777 63.6554C88.1777 61.1661 87.8263 58.6944 87.1305 56.3078C86.8035 55.184 87.1392 54.0115 88.0263 53.1732C89.8109 51.4841 91.359 49.541 92.627 47.3997ZM42.7347 99.75C36.8325 99.75 32.0472 94.9651 32.0472 89.0625C32.0472 83.1599 36.8325 78.375 42.7347 78.375C48.6368 78.375 53.4222 83.1599 53.4222 89.0625C53.4222 94.9651 48.6368 99.75 42.7347 99.75ZM64.1097 74.8125C58.2075 74.8125 53.4222 70.0276 53.4222 64.125C53.4222 58.2224 58.2075 53.4375 64.1097 53.4375C70.0118 53.4375 74.7972 58.2224 74.7972 64.125C74.7972 70.0276 70.0118 74.8125 64.1097 74.8125ZM71.2347 42.75C65.3325 42.75 60.5472 37.9651 60.5472 32.0625C60.5472 26.1599 65.3325 21.375 71.2347 21.375C77.1368 21.375 81.9222 26.1599 81.9222 32.0625C81.9222 37.9651 77.1368 42.75 71.2347 42.75Z" fill="black"/>
</svg>
